<svg data-v-423bf9ae="" xmlns="http://www.w3.org/2000/svg" viewBox="0 0 515 90" class="iconLeft"><!----><!----><!----><g data-v-423bf9ae="" id="33800aed-74d9-4979-bd4e-8cb4a3ed8c2d" fill="#2e3034" transform="matrix(5.5147058243466915,0,0,5.5147058243466915,310.56980647151204,-5.073531448067676)"><path d="M4.02 14.52C6.15 14.52 7.20 13.43 7.20 11.82C7.20 10.58 6.55 9.70 4.65 9.20L3.74 8.95C2.52 8.62 1.57 8.13 1.57 6.83C1.57 5.53 2.45 4.79 4.06 4.79C5.63 4.79 6.55 5.49 6.55 6.52L6.55 7.41L7.03 7.41L7.03 4.58L6.55 4.58L6.55 5.53L6.50 5.53C6.23 4.98 5.50 4.41 4.06 4.41C2.24 4.41 1.05 5.28 1.05 6.89C1.05 8.15 1.74 8.97 3.61 9.48L4.54 9.73C5.71 10.04 6.68 10.53 6.68 11.91C6.68 13.31 5.80 14.14 3.95 14.14C2.07 14.14 1.43 13.29 1.43 12.21L1.43 11.38L0.95 11.38L0.95 14.35L1.43 14.35L1.43 13.33L1.48 13.33C1.78 13.94 2.44 14.52 4.02 14.52ZM8.60 14.35L11.44 14.35L11.44 14L10.28 14L10.28 9.25C10.28 8.04 11.27 7.46 12.35 7.46C13.68 7.46 14.36 8.20 14.36 9.83L14.36 14L13.20 14L13.20 14.35L16.04 14.35L16.04 14L14.88 14L14.88 9.76C14.88 7.98 14.13 7.07 12.49 7.07C11.23 7.07 10.57 7.70 10.32 8.37L10.28 8.37L10.28 3.64L8.60 3.85L8.60 4.10L9.76 4.20L9.76 14L8.60 14ZM19.50 14.52C20.87 14.52 21.52 13.79 21.77 13.15L21.81 13.15L21.81 13.73C21.81 14.27 22.04 14.46 22.55 14.46C22.83 14.46 23.24 14.39 23.42 14.31L23.42 14.04L22.30 14.04L22.30 9.25C22.30 7.84 21.38 7.07 19.92 7.07C18.55 7.07 17.57 7.67 17.57 8.29C17.57 8.60 17.75 8.76 18.03 8.76C18.33 8.76 18.51 8.60 18.51 8.30C18.51 8.06 18.35 7.90 18.16 7.81L18.16 7.78C18.45 7.57 18.98 7.42 19.82 7.42C21.08 7.42 21.78 8.06 21.78 9.32L21.78 10.56L20.36 10.56C18.13 10.56 17.26 11.24 17.26 12.61C17.26 13.76 18.10 14.52 19.50 14.52ZM19.63 14.14C18.48 14.14 17.82 13.55 17.82 12.75L17.82 12.43C17.82 11.42 18.47 10.86 20.45 10.86L21.78 10.86L21.78 12.33C21.78 13.37 20.86 14.14 19.63 14.14ZM24.49 14.35L27.61 14.35L27.61 14L26.17 14L26.17 9.30C26.17 8.34 27.19 7.36 28.06 7.36C28.10 7.36 28.35 7.36 28.38 7.38L28.38 7.41C28.27 7.43 28.14 7.60 28.14 7.81C28.14 8.08 28.34 8.26 28.63 8.26C28.91 8.26 29.11 8.08 29.11 7.76C29.11 7.31 28.78 7.07 28.21 7.07C27.12 7.07 26.46 7.83 26.21 8.50L26.15 8.50L26.15 7.13L24.49 7.34L24.49 7.59L25.65 7.69L25.65 14L24.49 14ZM29.78 14.35L32.62 14.35L32.62 14L31.46 14L31.46 11.80L32.75 10.53L35.43 14L34.41 14L34.41 14.35L36.92 14.35L36.92 14L36.04 14L33.10 10.18L35.59 7.59L36.54 7.59L36.54 7.24L33.96 7.24L33.96 7.59L35.06 7.59L32.73 10.05L31.50 11.34L31.46 11.34L31.46 3.64L29.78 3.85L29.78 4.10L30.94 4.20L30.94 14L29.78 14Z"></path></g><!----><g data-v-423bf9ae="" id="6e8d8fb3-cd7c-4a64-8a37-9efa3782d04d" transform="matrix(10.555127122658208,0,0,10.555127122658208,0.09605104144714005,1.0004957691417928)" stroke="none" fill="#488eff"><path d="M.47 2.862c2.139.373 4.748 1.53 5.958 1.97.463-.147.969-.284 1.512-.413.61-.145.302-.742.281-1.123-.021-.377.092-.324.437-.182.385.159.62.468.98.612.952.108 2.687-.584 5.408-.762.436-.029 1.025-.737 1.095-1.059.105-.48.085-1.104.05-1.513-.038-.436.23-.465.644-.297.629.255 1.57 1.503 1.978 2.197.212.36.096.357.486.417 3.728.569 6.656 1.908 7.84 2.391 1.374.723.933.72.136 1.11-.683.196-1.276.562-2.06.595-.871.036-1.738.142-2.608.144-1.455 3.606-1.66-.105-2.613-.056-2.092.107-4.215-.271-6.16-.485-1.254.83-1.498.41-2.448-.423-.586-.02-.81-.123-1.358-.003-.172.038-.38.13-.491.269a4.597 4.597 0 0 1-.815.795c-.165.127-.536.289-.35-.252.23-.669-.47-.936-1.117-.902-.216.012-.523-.057-.706.132-.827.853-.961 1.7-1.64 2.192 0 0-1.568 1.057-.549-.857.885-1.663-1.353-.957-3.251-3.116C.745 3.829.92 3.91.284 3.317c-.383-.357-.432-.573.187-.455z"></path></g><!----></svg>