<svg data-v-423bf9ae="" xmlns="http://www.w3.org/2000/svg" viewBox="0 0 198.3639541966359 60" class="font"><!----><!----><!----><g data-v-423bf9ae="" id="8d0c929d-e246-43f6-b6b0-f07f940a0d3a" fill="black" transform="matrix(5.5147058243466915,0,0,5.5147058243466915,-5.238970383956698,-20.073529540719043)"><path d="M4.02 14.52C6.15 14.52 7.20 13.43 7.20 11.82C7.20 10.58 6.55 9.70 4.65 9.20L3.74 8.95C2.52 8.62 1.57 8.13 1.57 6.83C1.57 5.53 2.45 4.79 4.06 4.79C5.63 4.79 6.55 5.49 6.55 6.52L6.55 7.41L7.03 7.41L7.03 4.58L6.55 4.58L6.55 5.53L6.50 5.53C6.23 4.98 5.50 4.41 4.06 4.41C2.24 4.41 1.05 5.28 1.05 6.89C1.05 8.15 1.74 8.97 3.61 9.48L4.54 9.73C5.71 10.04 6.68 10.53 6.68 11.91C6.68 13.31 5.80 14.14 3.95 14.14C2.07 14.14 1.43 13.29 1.43 12.21L1.43 11.38L0.95 11.38L0.95 14.35L1.43 14.35L1.43 13.33L1.48 13.33C1.78 13.94 2.44 14.52 4.02 14.52ZM8.60 14.35L11.44 14.35L11.44 14L10.28 14L10.28 9.25C10.28 8.04 11.27 7.46 12.35 7.46C13.68 7.46 14.36 8.20 14.36 9.83L14.36 14L13.20 14L13.20 14.35L16.04 14.35L16.04 14L14.88 14L14.88 9.76C14.88 7.98 14.13 7.07 12.49 7.07C11.23 7.07 10.57 7.70 10.32 8.37L10.28 8.37L10.28 3.64L8.60 3.85L8.60 4.10L9.76 4.20L9.76 14L8.60 14ZM19.50 14.52C20.87 14.52 21.52 13.79 21.77 13.15L21.81 13.15L21.81 13.73C21.81 14.27 22.04 14.46 22.55 14.46C22.83 14.46 23.24 14.39 23.42 14.31L23.42 14.04L22.30 14.04L22.30 9.25C22.30 7.84 21.38 7.07 19.92 7.07C18.55 7.07 17.57 7.67 17.57 8.29C17.57 8.60 17.75 8.76 18.03 8.76C18.33 8.76 18.51 8.60 18.51 8.30C18.51 8.06 18.35 7.90 18.16 7.81L18.16 7.78C18.45 7.57 18.98 7.42 19.82 7.42C21.08 7.42 21.78 8.06 21.78 9.32L21.78 10.56L20.36 10.56C18.13 10.56 17.26 11.24 17.26 12.61C17.26 13.76 18.10 14.52 19.50 14.52ZM19.63 14.14C18.48 14.14 17.82 13.55 17.82 12.75L17.82 12.43C17.82 11.42 18.47 10.86 20.45 10.86L21.78 10.86L21.78 12.33C21.78 13.37 20.86 14.14 19.63 14.14ZM24.49 14.35L27.61 14.35L27.61 14L26.17 14L26.17 9.30C26.17 8.34 27.19 7.36 28.06 7.36C28.10 7.36 28.35 7.36 28.38 7.38L28.38 7.41C28.27 7.43 28.14 7.60 28.14 7.81C28.14 8.08 28.34 8.26 28.63 8.26C28.91 8.26 29.11 8.08 29.11 7.76C29.11 7.31 28.78 7.07 28.21 7.07C27.12 7.07 26.46 7.83 26.21 8.50L26.15 8.50L26.15 7.13L24.49 7.34L24.49 7.59L25.65 7.69L25.65 14L24.49 14ZM29.78 14.35L32.62 14.35L32.62 14L31.46 14L31.46 11.80L32.75 10.53L35.43 14L34.41 14L34.41 14.35L36.92 14.35L36.92 14L36.04 14L33.10 10.18L35.59 7.59L36.54 7.59L36.54 7.24L33.96 7.24L33.96 7.59L35.06 7.59L32.73 10.05L31.50 11.34L31.46 11.34L31.46 3.64L29.78 3.85L29.78 4.10L30.94 4.20L30.94 14L29.78 14Z"></path></g><!----><!----></svg>